<?xml version="1.0" encoding="UTF-8"?>
<svg version="1.1" xmlns="http://www.w3.org/2000/svg" width="1024" height="1024">
<path d="M0 0 C0.6763147 0.18930084 1.35262939 0.37860168 2.04943848 0.57363892 C33.91128555 9.59284323 65.29192569 23.11949291 93.125 41.125 C94.13691406 41.77597656 95.14882813 42.42695313 96.19140625 43.09765625 C112.49744915 53.79118895 128.2261512 65.30369678 142.46484375 78.6484375 C144.62420973 80.65877235 146.8128842 82.59322753 149.0625 84.5 C157.76076121 92.0747358 165.79624961 100.3555118 172.95703125 109.39453125 C175.24477878 112.27585652 177.6165526 115.07248492 180 117.875 C200.58599736 142.70487989 215.42065497 170.75250883 226.125 201.125 C226.56199219 200.06925781 226.56199219 200.06925781 227.0078125 198.9921875 C241.62009065 163.79405838 259.32880099 132.47034804 285.125 104.125 C286.00841064 103.14901855 286.00841064 103.14901855 286.90966797 102.15332031 C298.60895445 89.28130556 310.80693 77.0556149 324.73461914 66.58666992 C327.42309335 64.55459624 329.23278883 62.96331675 331.125 60.125 C332.43697127 59.41721924 333.77355439 58.75413988 335.125 58.125 C336.53211317 57.18227669 337.92039315 56.21108611 339.29296875 55.21875 C340.09621582 54.64415039 340.89946289 54.06955078 341.72705078 53.47753906 C342.58024902 52.86620117 343.43344727 52.25486328 344.3125 51.625 C351.64970714 46.41430514 359.08853948 41.58207749 366.91870117 37.14648438 C370.76623243 34.97075364 370.76623243 34.97075364 374.125 32.125 C375.38974313 31.44372645 376.68046412 30.80996181 377.984375 30.20703125 C378.76264648 29.84351563 379.54091797 29.48 380.34277344 29.10546875 C381.1784082 28.72003906 382.01404297 28.33460938 382.875 27.9375 C388.60408959 25.27062055 394.27605406 22.55484058 399.875 19.625 C420.73701388 9.13327707 443.50637405 1.92859254 466.0625 -3.875 C467.86787231 -4.34800537 467.86787231 -4.34800537 469.7097168 -4.83056641 C471.41381714 -5.25474854 471.41381714 -5.25474854 473.15234375 -5.6875 C474.66429321 -6.06841797 474.66429321 -6.06841797 476.20678711 -6.45703125 C480.78598121 -7.11289842 484.01070889 -6.60941914 487.875 -4.0625 C491.27449561 -0.75743482 492.36264184 1.90822662 492.44384766 6.61816406 C492.47365219 7.93908051 492.47365219 7.93908051 492.50405884 9.28668213 C492.51561005 10.22848328 492.52716125 11.17028442 492.5390625 12.140625 C492.56811172 13.59707428 492.56811172 13.59707428 492.5977478 15.08294678 C492.65746509 18.18020886 492.7038978 21.27750826 492.75 24.375 C492.78818698 26.47657859 492.82723914 28.57814165 492.8671875 30.6796875 C492.96316031 35.82799868 493.0472206 40.97638312 493.125 46.125 C499.1133059 45.59618378 504.95800889 44.88195782 510.85546875 43.71484375 C512.24933119 43.44456981 513.64321193 43.17439025 515.03710938 42.90429688 C517.18328845 42.48283582 519.32901846 42.05922242 521.47436523 41.63354492 C523.57952211 41.21758448 525.68611763 40.8096222 527.79296875 40.40234375 C529.65344849 40.03484009 529.65344849 40.03484009 531.55151367 39.65991211 C537.96446627 38.69996272 542.55096868 38.57788916 548.125 42.125 C551.86199651 46.1197204 552.25168487 49.94431433 552.23852539 55.26074219 C552.23844986 56.28149841 552.23837433 57.30225464 552.23829651 58.35394287 C552.23313522 59.44886047 552.22797394 60.54377808 552.22265625 61.671875 C552.2212413 62.7982135 552.21982635 63.924552 552.21836853 65.08502197 C552.21277199 68.68170835 552.2002201 72.27833244 552.1875 75.875 C552.18248455 78.31380118 552.17792172 80.75260334 552.17382812 83.19140625 C552.1628037 89.16929208 552.14606898 95.14714159 552.125 101.125 C553.2394751 101.10405273 554.3539502 101.08310547 555.50219727 101.06152344 C559.65994279 100.98880593 563.81763273 100.94308554 567.97583008 100.90527344 C569.77117382 100.88522999 571.56645287 100.85798749 573.36157227 100.82324219 C575.9508465 100.77440151 578.5392534 100.7519588 581.12890625 100.734375 C581.92398087 100.71372986 582.71905548 100.69308472 583.53822327 100.67181396 C589.17287663 100.66957478 592.7922178 101.36938148 597.125 105.125 C598.16665502 108.45204256 598.14846742 111.65877924 598.125 115.125 C598.14320801 116.04006317 598.16141602 116.95512634 598.18017578 117.8979187 C598.22484425 120.90075043 598.21155223 123.89930261 598.1875 126.90234375 C598.1790367 129.19807913 598.17065778 131.49381482 598.16235352 133.78955078 C598.15615997 134.97840881 598.14996643 136.16726685 598.14358521 137.39215088 C598.04622488 156.61961691 598.08735675 175.81704404 598.85742188 195.03100586 C598.90576172 196.31241455 598.95410156 197.59382324 599.00390625 198.9140625 C599.0510376 200.00412598 599.09816895 201.09418945 599.14672852 202.21728516 C599.125 205.125 599.125 205.125 598.62947559 207.22162056 C597.9173423 211.32012046 598.0051469 215.33485176 598.03166199 219.48678589 C598.03362983 220.4335032 598.03559766 221.38022051 598.03762513 222.35562623 C598.0453481 225.52992286 598.0602136 228.70414674 598.07495117 231.87841797 C598.08178113 234.15348166 598.08811146 236.4285469 598.09397888 238.70361328 C598.10731225 243.60413642 598.12345245 248.50463967 598.14153099 253.40514755 C598.16935106 261.15339782 598.18636827 268.90164782 598.20100403 276.64993286 C598.20614793 279.30237391 598.21130455 281.95481494 598.21647358 284.60725594 C598.21775961 285.27008659 598.21904564 285.93291724 598.22037065 286.61583366 C598.23509694 294.15681591 598.25157948 301.69779372 598.26928711 309.23876953 C598.27170922 310.27250795 598.27170922 310.27250795 598.27418027 311.32712997 C598.30071853 322.49627591 598.33847801 333.6653617 598.37947568 344.83446263 C598.4212306 356.30766436 598.44737713 367.78081237 598.46068364 379.25408661 C598.46876235 385.69357213 598.48430061 392.13285212 598.51735497 398.57226181 C598.54838516 404.62809085 598.56088199 410.68367267 598.55913734 416.73957825 C598.56183535 418.961991 598.57140828 421.18440765 598.58836365 423.40675735 C598.61051142 426.44123132 598.60795361 429.47472692 598.59928894 432.50924683 C598.61162243 433.38814634 598.62395591 434.26704586 598.63666314 435.17257869 C598.58461617 440.97408683 597.50135905 444.36844357 594.125 449.125 C589.65768818 452.2231916 585.51630613 452.56378767 580.22363281 452.54150391 C579.45543716 452.55008926 578.68724152 452.55867462 577.89576721 452.56752014 C575.37312519 452.59248307 572.850879 452.59694955 570.328125 452.6015625 C568.57028001 452.6158789 566.81244623 452.63163707 565.05462646 452.64877319 C560.43917051 452.69054915 555.82378404 452.71559981 551.20819092 452.73626709 C543.80651123 452.77214416 536.40500267 452.83299063 529.00350189 452.89475632 C526.41649927 452.91387132 523.82954258 452.92558123 521.24249268 452.93618774 C519.66459044 452.94639553 518.08668917 452.95675309 516.50878906 452.96728516 C515.78669754 452.96832748 515.06460602 452.96936981 514.32063293 452.97044373 C510.5981671 452.94797019 510.5981671 452.94797019 507.125 454.125 C505.0204298 454.11885527 502.91598737 454.06778155 500.8125 454 C443.81470011 453.41096096 384.92094843 472.90970212 333.125 495.125 C331.57440733 495.77909307 330.02364416 496.43278219 328.47265625 497.0859375 C319.97417732 500.69929078 311.71773081 504.74104667 303.49072266 508.92822266 C300.81637327 510.28112882 298.13353665 511.61620227 295.44921875 512.94921875 C284.56853388 518.35497068 273.74352226 523.84347005 263.01171875 529.5390625 C256.34783872 533.07522489 249.64861772 536.54403283 242.95092773 540.015625 C242.03384033 540.49257813 241.11675293 540.96953125 240.171875 541.4609375 C239.29982422 541.91178711 238.42777344 542.36263672 237.52929688 542.82714844 C235.39176378 543.98099957 233.37321756 545.23204004 231.328125 546.5390625 C227.41218757 548.47792908 226.30541944 548.20115669 222.125 547.125 C219.22634858 545.90416856 216.45850655 544.46712995 213.67578125 543.00390625 C212.86368698 542.58511703 212.05159271 542.16632782 211.21488953 541.73484802 C208.61836295 540.39341509 206.02794882 539.04062572 203.4375 537.6875 C201.74712836 536.81240972 200.05637604 535.93805438 198.36523438 535.06445312 C189.99016066 530.73114247 181.64178374 526.34767066 173.30078125 521.94921875 C140.17211704 504.48997845 106.66867775 489.06763282 71.125 477.125 C70.04927734 476.76229004 68.97355469 476.39958008 67.86523438 476.02587891 C64.81033008 475.00337348 61.75091399 473.99669291 58.6875 473 C57.78749268 472.70424072 56.88748535 472.40848145 55.96020508 472.10375977 C51.82849655 470.79300257 48.49055591 470.00723934 44.125 470.125 C43.465 469.465 42.805 468.805 42.125 468.125 C40.16369068 467.52059091 38.17415234 467.00656395 36.17578125 466.5390625 C34.33282471 466.1054541 34.33282471 466.1054541 32.45263672 465.66308594 C31.11446717 465.35780481 29.77608255 465.0534651 28.4375 464.75 C27.75995667 464.59470825 27.08241333 464.4394165 26.38433838 464.27941895 C-15.75003682 452.84926187 -15.75003682 452.84926187 -57.875 454.125 C-57.875 453.465 -57.875 452.805 -57.875 452.125 C-59.32079941 452.13499275 -59.32079941 452.13499275 -60.79580688 452.14518738 C-69.88847864 452.20605687 -78.98110894 452.25100066 -88.07393837 452.28043652 C-92.74843476 452.29607865 -97.42276639 452.31729038 -102.09716797 452.35131836 C-106.60997508 452.38396363 -111.12262391 452.40186394 -115.63554001 452.40963173 C-117.3554979 452.41516596 -119.07544734 452.42597303 -120.79533768 452.44219017 C-123.20831126 452.46403339 -125.62063453 452.46696409 -128.03369141 452.46557617 C-129.09537033 452.48175491 -129.09537033 452.48175491 -130.17849731 452.4982605 C-134.82928687 452.46939922 -138.00536407 451.72406189 -141.875 449.125 C-145.49403266 444.6212864 -146.38041891 441.58865659 -146.41891479 435.85147095 C-146.42905133 435.14054153 -146.43918787 434.42961211 -146.44963157 433.69713938 C-146.47858517 431.32471641 -146.47931819 428.9531532 -146.47998047 426.58056641 C-146.49474794 424.87483113 -146.51120142 423.16910975 -146.52920914 421.46340561 C-146.57303594 416.81850848 -146.59186108 412.17380586 -146.60595942 407.52873564 C-146.62493128 402.58275172 -146.66597787 397.63694119 -146.70358276 392.69107056 C-146.78565066 381.20183217 -146.82945901 369.7125951 -146.86506462 358.22313118 C-146.87478723 355.19134727 -146.88570199 352.15957036 -146.89710999 349.12779236 C-146.99584714 322.86576989 -147.01965811 296.60411791 -147.00357223 270.34193444 C-146.99976242 263.42179904 -147.00119902 256.50167788 -147.00537109 249.58154297 C-147.02001292 224.27259139 -146.99681337 198.96416434 -146.88591194 173.65542412 C-146.87510925 171.1503355 -146.86516674 168.64524456 -146.85533142 166.14015198 C-146.81810353 157.06220479 -146.75725239 147.98494614 -146.65792465 138.90745926 C-146.62919156 136.23658456 -146.61068496 133.5662469 -146.59717178 130.89518356 C-146.57707828 127.29500675 -146.53223635 123.69602441 -146.47998047 120.09619141 C-146.47872477 118.5393482 -146.47872477 118.5393482 -146.4774437 116.95105362 C-146.35785421 111.05080962 -145.82566191 107.60790566 -141.875 103.125 C-136.64802718 99.64035145 -130.75867452 100.00103573 -124.62890625 100.02734375 C-123.97292953 100.0287587 -123.31695282 100.03017365 -122.64109802 100.03163147 C-120.57318298 100.03716969 -118.50538158 100.04970998 -116.4375 100.0625 C-115.02409012 100.06752301 -113.61067852 100.0720845 -112.19726562 100.07617188 C-108.75647432 100.08711874 -105.31574828 100.10433962 -101.875 100.125 C-101.895625 99.403125 -101.91625 98.68125 -101.9375 97.9375 C-101.875 95.125 -101.875 95.125 -101.37451172 92.87451172 C-100.66111734 88.94770455 -100.81268666 85.11341121 -100.8828125 81.1328125 C-100.90033047 79.35807865 -100.91723859 77.5833387 -100.93359375 75.80859375 C-100.96451306 73.02830933 -101.00002778 70.24833394 -101.04638672 67.46826172 C-101.08892471 64.77307374 -101.1122204 62.07824582 -101.1328125 59.3828125 C-101.15143341 58.5596756 -101.17005432 57.7365387 -101.1892395 56.88845825 C-101.21282992 51.53315753 -100.38027672 47.88135616 -97.875 43.125 C-95.06302353 40.30711601 -92.50025506 39.60037258 -88.625 38.9375 C-87.28695312 38.69966797 -87.28695312 38.69966797 -85.921875 38.45703125 C-85.24640625 38.34746094 -84.5709375 38.23789062 -83.875 38.125 C-83.875 38.785 -83.875 39.445 -83.875 40.125 C-83.27453857 40.16165771 -82.67407715 40.19831543 -82.05541992 40.23608398 C-73.30564124 40.89132521 -64.78582028 42.52123331 -56.1875 44.1875 C-54.69605577 44.47248831 -53.20451979 44.75699689 -51.71289062 45.04101562 C-48.09918763 45.73015898 -44.48676338 46.42575342 -40.875 47.125 C-40.89071045 45.82353027 -40.9064209 44.52206055 -40.92260742 43.18115234 C-40.9770245 38.33941875 -41.01139305 33.49771206 -41.03979492 28.65576172 C-41.05485469 26.56261647 -41.07530671 24.46950264 -41.10131836 22.37646484 C-41.13782501 19.36287672 -41.15475473 16.34970688 -41.16796875 13.3359375 C-41.18345261 12.40445892 -41.19893646 11.47298035 -41.21488953 10.51327515 C-41.2162365 5.2794212 -40.80734256 1.65326944 -37.875 -2.875 C-28.88607096 -11.28399813 -10.31064387 -2.88657484 0 0 Z M-12.875 26.125 C-12.875 36.025 -12.875 45.925 -12.875 56.125 C-8.42 57.115 -8.42 57.115 -3.875 58.125 C-2.22996755 58.70516769 -0.59893869 59.33011971 1 60.02734375 C5.34641134 61.84141798 9.72758509 63.33599023 14.21484375 64.76074219 C64.278741 80.70390947 109.51729061 107.63821871 149.28515625 141.71484375 C151.11669088 143.26925485 152.96972809 144.79884336 154.84765625 146.296875 C157.47731602 148.40781972 159.76850344 150.71239638 162.125 153.125 C163.31116046 154.31383803 164.49873333 155.50126802 165.6875 156.6875 C166.28691406 157.28820312 166.88632812 157.88890625 167.50390625 158.5078125 C168.70136285 159.70238366 169.91015392 160.88561786 171.125 162.0625 C173.72267132 164.74134855 176.12326458 167.57492272 178.5390625 170.41796875 C180.03131704 172.22435724 180.03131704 172.22435724 182.125 173.125 C175.17800913 154.78626107 161.11773407 138.53311997 148.125 124.125 C147.61549805 123.55910156 147.10599609 122.99320312 146.58105469 122.41015625 C137.89538352 112.80418513 128.99459226 103.52864246 119.125 95.125 C118.20332031 94.31417969 117.28164063 93.50335938 116.33203125 92.66796875 C107.7160831 85.14647888 98.5619185 78.57236862 89.125 72.125 C88.44550293 71.65610352 87.76600586 71.18720703 87.06591797 70.70410156 C80.58283954 66.2348619 74.15703272 61.86608464 67.0078125 58.515625 C63.84502333 56.9899435 60.76666421 55.33856827 57.67480469 53.67504883 C24.03871739 34.71993349 24.03871739 34.71993349 -12.875 26.125 Z M315.0625 113 C314.13373047 113.91652344 313.20496094 114.83304687 312.24804688 115.77734375 C306.09972737 121.91271942 300.52004347 128.32296367 295.125 135.125 C293.8559521 136.66813671 292.58538817 138.21002949 291.3125 139.75 C287.69817082 144.2860557 284.30079558 148.96418045 280.9375 153.6875 C280.43822998 154.38375488 279.93895996 155.08000977 279.42456055 155.79736328 C275.95290429 160.72155912 272.95367338 165.80696981 270.125 171.125 C273.08521991 171.44895405 273.08521991 171.44895405 274.68383789 169.79907227 C275.50742798 168.87952759 275.50742798 168.87952759 276.34765625 167.94140625 C276.96358643 167.26537354 277.5795166 166.58934082 278.21411133 165.89282227 C278.86532959 165.16506592 279.51654785 164.43730957 280.1875 163.6875 C285.88977918 157.4564603 291.72925227 151.6500661 298.125 146.125 C299.79354611 144.60622889 301.46018199 143.08535679 303.125 141.5625 C317.36657588 128.7759458 333.01490766 117.43472348 349.125 107.125 C349.93130859 106.60760254 350.73761719 106.09020508 351.56835938 105.55712891 C362.06407553 98.85459449 372.57474447 92.53419225 383.84082031 87.22070312 C386.45124181 85.96850436 389.03313192 84.66509608 391.6171875 83.359375 C414.05178871 72.14116323 437.46789654 63.91857268 461.46801758 56.70654297 C463.14044767 56.25389935 463.14044767 56.25389935 464.125 55.125 C464.21275605 52.97941173 464.23195219 50.83095579 464.22265625 48.68359375 C464.21943359 47.37841797 464.21621094 46.07324219 464.21289062 44.72851562 C464.20453401 43.3398431 464.19606905 41.95117123 464.1875 40.5625 C464.18248666 39.16992344 464.17792347 37.77734519 464.17382812 36.38476562 C464.16199434 32.9648013 464.1455088 29.54492156 464.125 26.125 C412.56468248 26.125 349.51372435 78.57278347 315.0625 113 Z M-73.875 70.125 C-73.89786489 108.83578016 -73.91549747 147.5465593 -73.92606533 186.25734484 C-73.92731611 190.82252352 -73.92861042 195.38770219 -73.92993164 199.95288086 C-73.93019395 200.86176544 -73.93045626 201.77065002 -73.93072652 202.70707656 C-73.93508353 217.44361685 -73.94297125 232.18015325 -73.9521528 246.91669124 C-73.96148848 262.02609163 -73.96705543 277.13548998 -73.96908849 292.24489313 C-73.9704639 301.57596606 -73.97481543 310.90702801 -73.98291647 320.23809756 C-73.98818288 326.62777132 -73.98980454 333.01743937 -73.98850138 339.40711515 C-73.98785783 343.0993074 -73.98887736 346.79148041 -73.99420547 350.48366928 C-73.99992646 354.47703008 -73.99800116 358.47036539 -73.99525452 362.46372986 C-73.99816736 363.6436653 -74.0010802 364.82360074 -74.00408131 366.0392918 C-74.00109474 367.63070675 -74.00109474 367.63070675 -73.99804783 369.25427151 C-73.99842755 370.17737163 -73.99880727 371.10047175 -73.9991985 372.05154461 C-74.1057039 374.11548351 -74.1057039 374.11548351 -72.875 375.125 C-70.63735507 375.49762315 -68.39013113 375.81285122 -66.140625 376.10546875 C-64.69897742 376.29807817 -63.25741184 376.49130215 -61.81591797 376.68505859 C-60.66950836 376.83766144 -60.66950836 376.83766144 -59.49993896 376.99334717 C24.05478888 388.22173174 100.17382807 420.5581696 167.17333984 471.64550781 C169.14362841 473.13912161 171.12601603 474.61500247 173.11328125 476.0859375 C182.05517388 482.71266435 190.74241458 489.60090822 199.34326172 496.66357422 C201.90712416 498.76651757 204.48139878 500.85572988 207.0625 502.9375 C208.22072266 503.87529297 208.22072266 503.87529297 209.40234375 504.83203125 C210.89931265 506.22504836 210.89931265 506.22504836 212.125 506.125 C212.125 505.26009477 212.125 504.39518953 212.125 503.50407505 C212.125 337.1183222 212.125 337.1183222 212.28369141 330.77954102 C212.449663 323.92142813 212.56038371 317.06333629 212.64312172 310.20373631 C212.69488506 306.05552712 212.76486534 301.9094397 212.87939453 297.76245117 C213.84903586 271.27924596 213.84903586 271.27924596 202.125 248.125 C199.58690418 244.7701127 197.30456774 241.3075591 195.0625 237.75 C185.57284948 222.86285388 175.15246032 208.29480964 163.1328125 195.34375 C161.125 193.125 161.125 193.125 158.9921875 190.34375 C158.37601563 189.6115625 157.75984375 188.879375 157.125 188.125 C156.465 188.125 155.805 188.125 155.125 188.125 C154.75266235 187.26588013 154.75266235 187.26588013 154.37280273 186.3894043 C152.93375865 183.77795178 151.26491252 182.00592339 149.16015625 179.89453125 C148.36569092 179.09595703 147.57122559 178.29738281 146.75268555 177.47460938 C145.90617432 176.63736328 145.05966309 175.80011719 144.1875 174.9375 C143.32229736 174.07833984 142.45709473 173.21917969 141.56567383 172.33398438 C135.66905479 166.52855872 129.70505949 161.14713364 123.125 156.125 C122.02935538 155.25367917 120.9357289 154.37981674 119.84375 153.50390625 C101.68757478 138.9815054 82.41911256 126.26775054 61.99414062 115.14990234 C60.19910515 114.16563393 58.41918634 113.15819036 56.640625 112.14453125 C46.1139939 106.23342302 35.02502092 101.71915951 23.83691406 97.21875 C21.496822 96.27496062 19.16514605 95.3139702 16.8359375 94.34375 C15.69382812 93.8796875 14.55171875 93.415625 13.375 92.9375 C12.43140625 92.55207031 11.4878125 92.16664063 10.515625 91.76953125 C7.11421285 90.85248386 5.19464577 91.59017712 2.125 93.125 C2.125 91.805 2.125 90.485 2.125 89.125 C-11.06636242 84.5324516 -24.36360757 80.65699594 -37.875 77.125 C-39.421875 76.71386963 -39.421875 76.71386963 -41 76.29443359 C-44.16375709 75.45551455 -47.33112994 74.63187288 -50.5 73.8125 C-51.4585791 73.55791016 -52.4171582 73.30332031 -53.40478516 73.04101562 C-58.35618994 71.783244 -63.12807819 70.93392308 -68.22802734 70.55004883 C-69.29080902 70.4680574 -70.3535907 70.38606598 -71.44857788 70.30158997 C-72.64965683 70.21417793 -72.64965683 70.21417793 -73.875 70.125 Z M463.125 84.125 C461.45195801 84.63885254 461.45195801 84.63885254 459.74511719 85.16308594 C407.49523776 101.37127345 359.8855276 127.83068403 318.70703125 163.77246094 C317.07249776 165.16988617 315.39758567 166.50790421 313.71875 167.8515625 C312.8628125 168.60179687 312.006875 169.35203125 311.125 170.125 C311.125 170.785 311.125 171.445 311.125 172.125 C310.5475 172.3725 309.97 172.62 309.375 172.875 C306.79560021 174.30799988 305.06378408 175.90924676 303.125 178.125 C303.125 178.785 303.125 179.445 303.125 180.125 C302.5475 180.36734375 301.97 180.6096875 301.375 180.859375 C298.69977859 182.36418704 297.1454853 184.06368727 295.125 186.375 C294.33996094 187.2721875 293.55492187 188.169375 292.74609375 189.09375 C292.11356689 189.82658203 292.11356689 189.82658203 291.46826172 190.57421875 C290.06429935 192.19507825 288.64428165 193.8008707 287.22265625 195.40625 C280.76214759 202.75678012 274.90106469 210.35339325 269.33398438 218.39697266 C268.1444536 220.09719455 266.92979185 221.77563825 265.703125 223.44921875 C260.89350182 230.02595587 256.36132949 236.74199646 252 243.625 C251.53352051 244.35936279 251.06704102 245.09372559 250.58642578 245.8503418 C249.64635282 247.34953139 248.72509589 248.86068051 247.82280731 250.38290977 C246.125 253.125 246.125 253.125 244.10861969 255.86455727 C236.64197339 266.89047013 237.03867757 277.31388501 237.21679688 290.28662109 C237.219057 292.60392681 237.21777992 294.92123824 237.21325684 297.23854065 C237.21097295 303.49215402 237.25781948 309.74452563 237.3138485 315.99785185 C237.36405156 322.54673083 237.3685735 329.09564212 237.37805176 335.64468384 C237.39871431 346.62466811 237.44992541 357.60422028 237.52148438 368.58398438 C237.59506876 379.88637046 237.65162108 391.18863324 237.68554688 402.49121094 C237.68764866 403.18947677 237.68975045 403.8877426 237.69191593 404.607168 C237.70235725 408.1106351 237.71246667 411.61410306 237.72241116 415.11757159 C237.80516297 444.1203413 237.94650787 473.12266458 238.125 502.125 C241.61008906 503.11488734 241.61008906 503.11488734 244.93920898 502.21972656 C245.77174194 501.49994629 245.77174194 501.49994629 246.62109375 500.765625 C247.25515137 500.23219482 247.88920898 499.69876465 248.54248047 499.14916992 C249.20908691 498.56369385 249.87569336 497.97821777 250.5625 497.375 C251.98993971 496.16685051 253.41834312 494.9598388 254.84765625 493.75390625 C255.56324707 493.14305176 256.27883789 492.53219727 257.01611328 491.90283203 C260.1144559 489.29086966 263.29973412 486.79769954 266.5 484.3125 C270.51114215 481.18318045 274.4908912 478.02330038 278.4375 474.8125 C282.0995425 471.87213037 285.8636387 469.22792566 289.80078125 466.671875 C292.34329691 464.97971332 294.79330411 463.18939874 297.25 461.375 C322.82761683 442.71215958 350.87600594 426.28623654 380.125 414.125 C381.83840576 413.40376953 381.83840576 413.40376953 383.58642578 412.66796875 C429.15343189 393.50778008 475.88196502 380.30995646 525.125 375.125 C526.33553482 371.34285473 526.27280891 367.59373707 526.27026367 363.66601562 C526.27362228 362.92083176 526.2769809 362.17564789 526.28044128 361.40788269 C526.2899266 358.9489881 526.291893 356.49016174 526.29296875 354.03125 C526.29618236 352.32019014 526.29954651 350.60913057 526.30305481 348.89807129 C526.30903955 345.31371422 526.31089532 341.72938124 526.31030273 338.14501953 C526.310201 333.55159504 526.32386779 328.95832474 526.34107494 324.36493683 C526.35218971 320.83220713 526.35422212 317.29951481 526.35369301 313.76676941 C526.35487335 312.07308927 526.35929818 310.37940817 526.36702538 308.68574524 C526.37681731 306.31838132 526.37395076 303.95135365 526.36791992 301.58398438 C526.37353943 300.88464279 526.37915894 300.18530121 526.38494873 299.46476746 C526.36151881 295.84730538 526.10152438 293.20335687 524.125 290.125 C524.785 289.465 525.445 288.805 526.125 288.125 C526.42140556 284.88740287 526.42140556 284.88740287 526.35546875 281.0546875 C526.35501053 280.34079865 526.35455231 279.62690979 526.3540802 278.89138794 C526.35105251 277.36979525 526.34315087 275.84820581 526.33081055 274.32666016 C526.3129525 272.05749815 526.31029833 269.78875502 526.31054688 267.51953125 C526.29183613 260.18236171 526.10052864 252.89405604 525.5859375 245.57421875 C525.20215619 239.99232129 525.10581348 234.63223304 525.5625 229.0625 C526.06024251 221.57898085 526.24119511 214.12500673 526.25 206.625 C526.25443115 205.62718506 526.2588623 204.62937012 526.26342773 203.60131836 C526.26157471 202.6706958 526.25972168 201.74007324 526.2578125 200.78125 C526.25668457 199.95431641 526.25555664 199.12738281 526.25439453 198.27539062 C526.20688406 195.93952688 526.20688406 195.93952688 525.125 193.125 C525.455 192.465 525.785 191.805 526.125 191.125 C526.22186608 189.39146263 526.25576003 187.65420912 526.2578125 185.91796875 C526.25966553 184.86174316 526.26151855 183.80551758 526.26342773 182.71728516 C526.25899658 181.59370605 526.25456543 180.47012695 526.25 179.3125 C526.24818726 177.6116626 526.24818726 177.6116626 526.24633789 175.87646484 C526.21425817 168.99561228 526.00116853 162.22509504 525.24609375 155.3828125 C525.125 153.125 525.125 153.125 526.125 150.125 C526.20555953 148.69069381 526.23262259 147.25293845 526.22265625 145.81640625 C526.21782227 144.57213867 526.21782227 144.57213867 526.21289062 143.30273438 C526.20451172 142.43970703 526.19613281 141.57667969 526.1875 140.6875 C526.18073242 139.39875977 526.18073242 139.39875977 526.17382812 138.08398438 C526.16512403 136.48118715 526.15436358 134.87839881 526.14086914 133.27563477 C526.1128525 129.47873312 526.12838807 125.68194448 526.14086914 121.88500977 C526.15882151 116.07463086 526.17040827 110.26425583 526.17993164 104.45385742 C526.18497362 101.94473859 526.19180701 99.43562272 526.20043945 96.92651367 C526.21256411 93.30647055 526.21823991 89.68646596 526.22265625 86.06640625 C526.23039818 84.38497276 526.23039818 84.38497276 526.23829651 82.66957092 C526.23837204 81.62175949 526.23844757 80.57394806 526.23852539 79.49438477 C526.240746 78.57601334 526.24296661 77.65764191 526.24525452 76.71144104 C526.12339233 74.09042204 525.70686253 71.68003991 525.125 69.125 C505.3203119 69.125 481.69784398 78.36435248 463.125 84.125 Z M-120.875 128.125 C-120.97202254 129.70969822 -120.99871632 131.29874151 -120.99804783 132.8864069 C-121.00003888 133.92296643 -121.00202993 134.95952597 -121.00408131 136.0274964 C-121.00116847 137.1801952 -120.99825563 138.332894 -120.99525452 139.52052307 C-120.99610894 140.73419255 -120.99696337 141.94786202 -120.99784368 143.19830936 C-120.99921191 146.58233876 -120.9960643 149.96631104 -120.99106562 153.35033357 C-120.98676454 156.99384016 -120.9882073 160.63734486 -120.9889679 164.28085327 C-120.98949335 170.59854619 -120.98634433 176.91622881 -120.98073006 183.23391914 C-120.97261794 192.36834343 -120.97000013 201.50276272 -120.96874207 210.63719022 C-120.96655109 225.4556394 -120.95988978 240.27408309 -120.95043945 255.0925293 C-120.94126651 269.49096652 -120.9341851 283.88940225 -120.92993164 298.2878418 C-120.92966892 299.17471676 -120.92940619 300.06159172 -120.92913551 300.97534169 C-120.92783051 305.4243402 -120.92656679 309.87333873 -120.92532361 314.32233727 C-120.91494958 351.25656206 -120.89733003 388.1907806 -120.875 425.125 C-120.07273987 425.13308685 -119.27047974 425.14117371 -118.44390869 425.14950562 C-110.74125232 425.22868672 -103.03875305 425.31630238 -95.33629227 425.41252708 C-91.37998931 425.46167778 -87.42370334 425.50798539 -83.46728516 425.546875 C-58.66327135 425.79381356 -33.83571841 426.30111829 -9.25 429.9375 C-8.05511963 430.10999268 -6.86023926 430.28248535 -5.62915039 430.46020508 C13.08513668 433.23328732 31.4577912 437.07818674 49.8125 441.625 C50.56604767 441.81041351 51.31959534 441.99582703 52.09597778 442.18685913 C61.27705292 444.45768513 70.23754625 447.04414569 79.15942383 450.18945312 C82.0835611 451.27542665 82.0835611 451.27542665 85.125 451.125 C85.125 450.465 85.125 449.805 85.125 449.125 C35.36291898 424.19195373 -17.25260807 409.25184315 -72.23046875 401.23828125 C-73.51228027 401.05088379 -74.7940918 400.86348633 -76.11474609 400.67041016 C-78.60116604 400.30976465 -81.08847169 399.95516839 -83.57666016 399.60693359 C-84.72312012 399.4414502 -85.86958008 399.2759668 -87.05078125 399.10546875 C-88.05665283 398.96391357 -89.06252441 398.8223584 -90.09887695 398.67651367 C-92.92508163 398.11505062 -95.29823081 397.41664705 -97.875 396.125 C-100.91568483 389.67947648 -100.09618688 382.3522485 -100 375.375 C-99.99097656 374.14394531 -99.98195313 372.91289063 -99.97265625 371.64453125 C-99.95524789 369.37398385 -99.93372682 367.10346154 -99.90673828 364.83300781 C-99.88443988 362.9304398 -99.875 361.02769868 -99.875 359.125 C-99.87295983 357.49067661 -99.87068423 355.85635352 -99.86827087 354.22203064 C-99.84817262 340.16270936 -99.83298192 326.10339061 -99.82318783 312.0440588 C-99.81802268 304.82290502 -99.81097054 297.60176207 -99.79956055 290.38061523 C-99.78960819 284.07878362 -99.78314557 277.77695986 -99.78091151 271.4751206 C-99.77960603 268.13949419 -99.77600851 264.80389559 -99.76926994 261.46827507 C-99.76205612 257.75219235 -99.76100918 254.03615691 -99.76147461 250.32006836 C-99.75787933 249.20988342 -99.75428406 248.09969849 -99.75057983 246.95587158 C-99.7519545 245.94775925 -99.75332916 244.93964691 -99.75474548 243.90098572 C-99.75382369 243.02180449 -99.7529019 242.14262327 -99.75195217 241.23680019 C-99.73900672 239.06829555 -99.73900672 239.06829555 -100.875 237.125 C-100.97570113 234.69632577 -101.01554659 232.30337751 -101 229.875 C-100.9987915 229.15771729 -100.99758301 228.44043457 -100.99633789 227.70141602 C-100.96355111 223.12892165 -100.71355556 218.61994954 -100.3125 214.0625 C-99.79712296 207.87797554 -100.11612214 201.96305623 -100.71875 195.79296875 C-100.875 192.125 -100.875 192.125 -100.39086914 188.20263672 C-99.6901634 182.2086776 -99.75044585 176.24246617 -99.77734375 170.21484375 C-99.7787587 169.00679581 -99.78017365 167.79874786 -99.78163147 166.55409241 C-99.78719605 162.72353563 -99.79974197 158.89303889 -99.8125 155.0625 C-99.81751958 152.45377689 -99.82208168 149.84505286 -99.82617188 147.23632812 C-99.83715387 140.86586519 -99.85385646 134.49543689 -99.875 128.125 C-104.16258194 127.19488474 -108.25011911 126.97471167 -112.625 127 C-113.65173828 126.99419922 -113.65173828 126.99419922 -114.69921875 126.98828125 C-118.07217774 126.69982208 -118.07217774 126.69982208 -120.875 128.125 Z M552.125 127.125 C551.20160794 129.89517617 551.00454909 131.49653397 551.01756954 134.34884071 C551.01906189 135.21459587 551.02055424 136.08035102 551.02209181 136.97234118 C551.0288956 137.92398476 551.03569939 138.87562835 551.04270935 139.85610962 C551.04755304 141.37185233 551.04755304 141.37185233 551.05249459 142.91821611 C551.0646033 146.32002684 551.08396927 149.72175818 551.10327148 153.12353516 C551.11341077 155.55581996 551.12310482 157.98810666 551.13238525 160.4203949 C551.15340254 165.66528637 551.17752997 170.91015384 551.20446587 176.15501785 C551.2434106 183.7393304 551.27677068 191.3236594 551.30876113 198.90800409 C551.36081919 211.21407953 551.41739614 223.52012989 551.47680664 235.82617188 C551.53450201 247.77896146 551.59008925 259.73175776 551.64282227 271.68457031 C551.64769684 272.78922181 551.64769684 272.78922181 551.6526699 273.91618951 C551.66895995 277.61075192 551.68520782 281.30531452 551.70143402 284.99987721 C551.7329414 292.17125502 551.76472737 299.34263158 551.79664612 306.51400757 C551.79972834 307.2065105 551.80281055 307.89901344 551.80598617 308.61250131 C551.8843382 326.19466985 551.966928 343.77681821 552.0504303 361.35896301 C552.05803559 362.96090313 552.05803559 362.96090313 552.06579453 364.59520566 C552.07522331 366.57851912 552.08467857 368.56183245 552.09416479 370.54514563 C552.11640037 375.2120137 552.05042988 379.78083686 551.75 384.4375 C551.68039062 385.58863281 551.61078125 386.73976563 551.5390625 387.92578125 C551.14763834 390.95008676 550.8887838 392.67409797 549.125 395.125 C544.80771767 398.33897684 540.73705646 398.89992726 535.546875 399.5546875 C534.29380806 399.72757797 534.29380806 399.72757797 533.01542664 399.90396118 C531.22897993 400.15013466 529.44189768 400.39173202 527.65426636 400.62915039 C522.98031021 401.25281671 518.31244498 401.9187541 513.64453125 402.5859375 C512.72539444 402.71695862 511.80625763 402.84797974 510.85926819 402.98297119 C499.84594811 404.57084519 488.97925602 406.6753344 478.125 409.125 C477.20783203 409.32496582 476.29066406 409.52493164 475.34570312 409.73095703 C433.28771769 418.99809513 392.42320172 435.73818616 354.125 455.125 C354.455 455.785 354.785 456.445 355.125 457.125 C356.49205078 456.57972656 356.49205078 456.57972656 357.88671875 456.0234375 C368.03962547 452.05021232 378.30334377 448.85339214 388.82666016 446.01708984 C391.18275208 445.37984633 393.53633543 444.73329811 395.88818359 444.08056641 C432.18178397 434.01179587 471.26059149 426.01894775 509.08105469 426.14086914 C515.04898523 426.15905678 521.01691301 426.17048509 526.98486328 426.17993164 C529.5568076 426.18493542 532.12874912 426.1917405 534.70068359 426.20043945 C538.42025446 426.21269227 542.1397875 426.21827046 545.859375 426.22265625 C546.9921991 426.22781754 548.12502319 426.23297882 549.29217529 426.23829651 C556.94589527 426.23882352 564.50302162 425.81531435 572.125 425.125 C573.0000208 420.99775511 573.0000208 420.99775511 572.65943909 416.84188461 C572.02565082 413.61994662 572.00537667 410.62693801 572.01147461 407.34234619 C572.01132575 406.6731606 572.01117689 406.00397501 572.01102352 405.31451106 C572.01171614 403.0797588 572.01954975 400.84508948 572.02734375 398.61035156 C572.02926348 397.00534613 572.03072702 395.4003401 572.0317688 393.79533386 C572.03492684 390.34353777 572.04119076 386.89176622 572.04983521 383.43997955 C572.06335448 377.98690473 572.06925069 372.53383807 572.07397461 367.08074951 C572.08507192 355.51215544 572.10462315 343.94358089 572.125 332.375 C572.14700239 319.87270537 572.16757264 307.37041858 572.17841816 294.86810851 C572.183415 289.44168746 572.19329532 284.01530336 572.20684814 278.58889723 C572.21427844 275.22262415 572.21761741 271.85635624 572.2198143 268.49007607 C572.22169492 266.92308306 572.22531275 265.35609108 572.23074722 263.78910637 C572.23790443 261.65928638 572.23900363 259.5295491 572.23852539 257.39971924 C572.240746 256.20511707 572.24296661 255.01051491 572.24525452 253.77971268 C572.42751569 251.20272091 572.42751569 251.20272091 571.125 250.125 C571.455 250.125 571.785 250.125 572.125 250.125 C572.125 248.866875 572.125 247.60875 572.125 246.3125 C572.125 243.91666667 572.125 241.52083333 572.125 239.125 C571.795 238.795 571.465 238.465 571.125 238.125 C571.455 238.125 571.785 238.125 572.125 238.125 C572.125 237.57598526 572.125 237.02697052 572.125 236.46131897 C572.125 186.125 572.125 186.125 572.25 184 C572.0974111 180.49045534 571.17311446 177.46586483 570.125 174.125 C570.785 174.125 571.445 174.125 572.125 174.125 C572.125 173.06998291 572.125 172.01496582 572.125 170.92797852 C572.125 156.32698568 572.125 141.72599284 572.125 127.125 C571.465 127.455 570.805 127.785 570.125 128.125 C568.27734375 128.00390625 568.27734375 128.00390625 566.0625 127.6875 C561.37814208 127.09435078 556.84405431 127.05009438 552.125 127.125 Z M269.125 172.125 C268.465 173.775 267.805 175.425 267.125 177.125 C269.1649719 175.76176257 269.1649719 175.76176257 271.125 174.125 C271.125 173.465 271.125 172.805 271.125 172.125 C270.465 172.125 269.805 172.125 269.125 172.125 Z M182.125 173.125 C182.455 174.115 182.785 175.105 183.125 176.125 C183.125 175.135 183.125 174.145 183.125 173.125 C182.795 173.125 182.465 173.125 182.125 173.125 Z M571.125 175.125 C572.125 179.125 572.125 179.125 572.125 179.125 Z M86.125 450.125 C85.795 450.785 85.465 451.445 85.125 452.125 C89.96968739 454.73259567 89.96968739 454.73259567 95.125 454.125 C90.67 452.145 90.67 452.145 86.125 450.125 Z M238.125 503.125 C238.455 504.115 238.785 505.105 239.125 506.125 C239.125 505.135 239.125 504.145 239.125 503.125 C238.795 503.125 238.465 503.125 238.125 503.125 Z " fill="#040404" transform="translate(285.875,249.875)"/>
<path d="M0 0 C0.99 0 1.98 0 3 0 C3.02286486 39.09296239 3.04049745 78.18592391 3.05106533 117.27889165 C3.05231611 121.88913416 3.05361042 126.49937665 3.05493164 131.10961914 C3.05519395 132.02747557 3.05545626 132.94533199 3.05572652 133.89100225 C3.06008354 148.77303936 3.06797126 163.65507263 3.0771528 178.53710746 C3.08648846 193.79566949 3.09205542 209.0542295 3.09408849 224.31279427 C3.0954639 233.73599554 3.09981546 243.15918595 3.10791647 252.58238388 C3.11318285 259.03513198 3.11480454 265.48787443 3.11350138 271.94062453 C3.11285783 275.6692715 3.11387741 279.39789942 3.11920547 283.12654305 C3.1249264 287.15932079 3.12300118 291.19205742 3.12025452 295.22483826 C3.12316736 296.41644654 3.1260802 297.60805483 3.12908131 298.83577245 C3.12709026 299.90716595 3.12509921 300.97855944 3.12304783 302.0824194 C3.12342755 303.01463281 3.12380727 303.94684622 3.1241985 304.90730852 C3 307 3 307 2 308 C0.48071962 308.07179964 -1.04167482 308.08392007 -2.5625 308.0625 C-3.38878906 308.05347656 -4.21507812 308.04445313 -5.06640625 308.03515625 C-5.70449219 308.02355469 -6.34257813 308.01195312 -7 308 C-7 307.67 -7 307.34 -7 307 C-4.36 306.67 -1.72 306.34 1 306 C1.02314169 297.29883071 1.04092443 288.59767197 1.05181217 279.89647865 C1.05703699 275.85643046 1.06412739 271.81640328 1.07543945 267.77636719 C1.08628254 263.879559 1.09227987 259.98277105 1.09487724 256.08594894 C1.09672892 254.59715837 1.10034463 253.10836893 1.10573006 251.61958694 C1.11295934 249.53884715 1.11399014 247.45819168 1.11352539 245.37744141 C1.115746 244.19163483 1.11796661 243.00582825 1.12025452 241.78408813 C1.19162489 239.0430835 1.19162489 239.0430835 0 237 C0.66 237 1.32 237 2 237 C1.88658363 234.68690295 1.75896193 232.37449815 1.625 230.0625 C1.55539062 228.77472656 1.48578125 227.48695313 1.4140625 226.16015625 C1.27742187 225.11730469 1.14078125 224.07445312 1 223 C0.34 222.67 -0.32 222.34 -1 222 C-0.01 221.01 -0.01 221.01 1 220 C1.29640556 216.76240287 1.29640556 216.76240287 1.23046875 212.9296875 C1.23001053 212.21579865 1.22955231 211.50190979 1.2290802 210.76638794 C1.22605251 209.24479525 1.21815087 207.72320581 1.20581055 206.20166016 C1.1879525 203.93249815 1.18529833 201.66375502 1.18554688 199.39453125 C1.16683613 192.05736171 0.97552864 184.76905604 0.4609375 177.44921875 C0.07715619 171.86732129 -0.01918652 166.50723304 0.4375 160.9375 C0.93524251 153.45398085 1.11619511 146.00000673 1.125 138.5 C1.13164673 137.00327759 1.13164673 137.00327759 1.13842773 135.47631836 C1.13657471 134.5456958 1.13472168 133.61507324 1.1328125 132.65625 C1.13168457 131.82931641 1.13055664 131.00238281 1.12939453 130.15039062 C1.08188406 127.81452688 1.08188406 127.81452688 0 125 C0.495 124.01 0.495 124.01 1 123 C1.09686608 121.26646263 1.13076003 119.52920912 1.1328125 117.79296875 C1.13466553 116.73674316 1.13651855 115.68051758 1.13842773 114.59228516 C1.13399658 113.46870605 1.12956543 112.34512695 1.125 111.1875 C1.12318726 109.4866626 1.12318726 109.4866626 1.12133789 107.75146484 C1.08925817 100.87061228 0.87616853 94.10009504 0.12109375 87.2578125 C0 85 0 85 1 82 C1.080129 80.62695085 1.10766943 79.25034882 1.09765625 77.875 C1.09443359 77.08609375 1.09121094 76.2971875 1.08789062 75.484375 C1.07951172 74.66453125 1.07113281 73.8446875 1.0625 73 C1.05798828 72.18015625 1.05347656 71.3603125 1.04882812 70.515625 C1.04011557 68.9921728 1.0293492 67.46872998 1.01586914 65.9453125 C0.9880256 62.53212277 1.00505855 59.11905205 1.01586914 55.70581055 C1.03387562 49.67212433 1.04542495 43.63844148 1.05493164 37.60473633 C1.05996684 34.99861244 1.06679535 32.39249137 1.07543945 29.78637695 C1.08757889 26.02815051 1.09324386 22.26996123 1.09765625 18.51171875 C1.10281754 17.34903976 1.10797882 16.18636078 1.11329651 14.9884491 C1.11337204 13.897444 1.11344757 12.8064389 1.11352539 11.68237305 C1.115746 10.72767624 1.11796661 9.77297943 1.12025452 8.78935242 C0.99109183 5.79337147 0.54895979 2.94563502 0 0 Z " fill="#323232" transform="translate(810,318)"/>
<path d="M0 0 C0.66 0 1.32 0 2 0 C2 87.45 2 174.9 2 265 C-0.28455614 261.57316579 -0.22737718 260.3957591 -0.16015625 256.37890625 C-0.14919922 255.27869141 -0.13824219 254.17847656 -0.12695312 253.04492188 C-0.10568359 251.89572266 -0.08441406 250.74652344 -0.0625 249.5625 C-0.02801739 247.29303312 0.00211134 245.02349482 0.02734375 242.75390625 C0.04531006 241.74658447 0.06327637 240.7392627 0.08178711 239.70141602 C0.1053646 237.0713546 0.1053646 237.0713546 -0.56420898 234.89038086 C-1 233 -1 233 -0.53517342 231.18868446 C0.06203059 228.74631514 0.12587712 226.60443174 0.12698364 224.09066772 C0.12980347 223.10360336 0.13262329 222.116539 0.13552856 221.0995636 C0.13350433 220.02305038 0.1314801 218.94653717 0.12939453 217.83740234 C0.13114685 216.69886307 0.13289917 215.56032379 0.13470459 214.38728333 C0.13910961 210.62015259 0.13619022 206.85306872 0.1328125 203.0859375 C0.13348583 200.47327668 0.1344561 197.86061593 0.13571167 195.24795532 C0.13753012 189.7720692 0.135135 184.29619657 0.13037109 178.8203125 C0.12492366 172.48550664 0.12669592 166.15073295 0.1321975 159.81592786 C0.13727695 153.72371262 0.13674632 147.63151167 0.13381577 141.5392952 C0.13314688 138.94523743 0.13397358 136.35117885 0.13629532 133.75712204 C0.13882298 130.13932846 0.13497984 126.52159748 0.12939453 122.90380859 C0.13141876 121.82324692 0.13344299 120.74268524 0.13552856 119.62937927 C0.13270874 118.64795456 0.12988892 117.66652985 0.12698364 116.65536499 C0.12660662 115.79960562 0.12622959 114.94384624 0.12584114 114.06215477 C0.13128976 111.93599372 0.13128976 111.93599372 -1 110 C-1.10070113 107.57132577 -1.14054659 105.17837751 -1.125 102.75 C-1.1237915 102.03271729 -1.12258301 101.31543457 -1.12133789 100.57641602 C-1.08855111 96.00392165 -0.83855556 91.49494954 -0.4375 86.9375 C0.07787704 80.75297554 -0.24112214 74.83805623 -0.84375 68.66796875 C-1 65 -1 65 -0.51586914 61.09130859 C0.19365845 55.02126962 0.12438939 48.9750901 0.09765625 42.87109375 C0.0962413 41.64084976 0.09482635 40.41060577 0.09336853 39.14308167 C0.08780285 35.24119563 0.07525671 31.33936848 0.0625 27.4375 C0.05691266 24.7805998 0.05291844 22.12370015 0.04882812 19.46679688 C0.03784466 12.97784473 0.02114094 6.48892658 0 0 Z " fill="#2C2C2C" transform="translate(185,377)"/>
<path d="M0 0 C0.66 0 1.32 0 2 0 C0.84826645 2.46800047 -0.04783565 4.04783565 -2 6 C-2.33145587 8.4255024 -2.33145587 8.4255024 -2.31884766 11.27587891 C-2.33871735 12.3768692 -2.35858704 13.4778595 -2.37905884 14.61221313 C-2.39638565 16.40131607 -2.39638565 16.40131607 -2.4140625 18.2265625 C-2.43342865 19.44451508 -2.4527948 20.66246765 -2.4727478 21.91732788 C-2.53268215 25.8198133 -2.57898471 29.72232799 -2.625 33.625 C-2.66316699 36.2656381 -2.70221795 38.90626357 -2.7421875 41.546875 C-2.83839504 48.03113826 -2.92340176 54.51547708 -3 61 C-4.14476807 60.99887207 -5.28953613 60.99774414 -6.46899414 60.99658203 C-10.73918526 61.00026868 -15.00825563 61.04320101 -19.27807617 61.09765625 C-21.12175248 61.11576162 -22.96556388 61.1233947 -24.80932617 61.12011719 C-27.46898812 61.11724421 -30.12587978 61.15271901 -32.78515625 61.1953125 C-33.60210464 61.18621857 -34.41905304 61.17712463 -35.26075745 61.16775513 C-40.91156706 61.30946388 -43.73610927 62.78037105 -47.79270935 66.71578979 C-48.39031822 67.35147385 -48.39031822 67.35147385 -49 68 C-47.73461332 64.09839108 -46.65525211 61.97581195 -43 60 C-38.21263246 59.14198714 -33.61130513 58.88149654 -28.75390625 58.90234375 C-28.09792953 58.9037587 -27.44195282 58.90517365 -26.76609802 58.90663147 C-24.69818298 58.91216969 -22.63038158 58.92470998 -20.5625 58.9375 C-19.14909012 58.94252301 -17.73567852 58.9470845 -16.32226562 58.95117188 C-12.88147432 58.96211874 -9.44074828 58.97933962 -6 59 C-6.020625 58.278125 -6.04125 57.55625 -6.0625 56.8125 C-6 54 -6 54 -5.49951172 51.74951172 C-4.78611734 47.82270455 -4.93768666 43.98841121 -5.0078125 40.0078125 C-5.02533047 38.23307865 -5.04223859 36.4583387 -5.05859375 34.68359375 C-5.08951306 31.90330933 -5.12502778 29.12333394 -5.17138672 26.34326172 C-5.21392471 23.64807374 -5.2372204 20.95324582 -5.2578125 18.2578125 C-5.27643341 17.4346756 -5.29505432 16.6115387 -5.3142395 15.76345825 C-5.33783258 10.4075552 -4.51113177 6.75476513 -2 2 C-1.34 1.34 -0.68 0.68 0 0 Z " fill="#303130" transform="translate(190,291)"/>
<path d="M0 0 C-3.64074254 2.42716169 -6.35080843 2.29955641 -10.56079102 2.30297852 C-11.32854858 2.31141785 -12.09630615 2.31985718 -12.8873291 2.32855225 C-15.42619438 2.35435189 -17.9649434 2.36647467 -20.50390625 2.37890625 C-22.26603623 2.39507733 -24.02815722 2.41225691 -25.79026794 2.43040466 C-30.43040824 2.47611929 -35.07056045 2.51091144 -39.71081543 2.54260254 C-47.14220303 2.59445461 -54.57345861 2.65952808 -62.00468254 2.73081779 C-64.60496221 2.75369559 -67.20522501 2.76993738 -69.80555725 2.78553772 C-71.39324123 2.79894146 -72.98092345 2.81255601 -74.56860352 2.82641602 C-75.29540817 2.82902939 -76.02221283 2.83164276 -76.77104187 2.83433533 C-80.51059151 2.81855898 -80.51059151 2.81855898 -84 4 C-86.21138855 3.91188555 -88.42042185 3.7570216 -90.625 3.5625 C-91.81351563 3.46066406 -93.00203125 3.35882812 -94.2265625 3.25390625 C-95.14179687 3.17011719 -96.05703125 3.08632813 -97 3 C-97 2.67 -97 2.34 -97 2 C-86.83434555 0.9311755 -76.71287303 0.78502822 -66.50390625 0.68359375 C-64.73941118 0.66296795 -62.97492042 0.64197025 -61.21043396 0.62062073 C-56.60116196 0.56587247 -51.99184867 0.51627911 -47.38250732 0.46777344 C-42.68530528 0.41734788 -37.98816532 0.36169075 -33.29101562 0.30664062 C-26.43435379 0.22716223 -19.57767776 0.14926466 -12.72094727 0.07592773 C-11.65410202 0.06425819 -11.65410202 0.06425819 -10.56570435 0.05235291 C-7.04363172 0.01531254 -3.52226952 -0.00828519 0 0 Z " fill="#5B5B5A" transform="translate(877,700)"/>
<path d="M0 0 C0 3 0 3 -2.38671875 5.72729492 C-3.47931119 6.81941176 -4.5801754 7.90329204 -5.6875 8.98046875 C-6.26459717 9.55332108 -6.84169434 10.1261734 -7.4362793 10.71638489 C-9.28394376 12.54723565 -11.14175807 14.36739185 -13 16.1875 C-14.25328593 17.42574262 -15.50589901 18.66466668 -16.7578125 19.90429688 C-19.83078528 22.94416468 -22.91290242 25.97448016 -26 29 C-26.66 28.67 -27.32 28.34 -28 28 C-19.04173531 18.21783652 -9.90877269 8.82265089 0 0 Z " fill="#252525" transform="translate(599,326)"/>
<path d="M0 0 C0 3 0 3 -2.29492188 5.63549805 C-3.3451977 6.6852984 -4.40374234 7.72686669 -5.46875 8.76171875 C-6.02365112 9.31237503 -6.57855225 9.86303131 -7.15026855 10.43037415 C-8.92660687 12.18990125 -10.7130848 13.93872165 -12.5 15.6875 C-13.70510885 16.87756521 -14.90954483 18.06831223 -16.11328125 19.25976562 C-19.06776708 22.18114979 -22.03138969 25.09297256 -25 28 C-25.66 27.67 -26.32 27.34 -27 27 C-26.10698344 25.93513145 -25.2104053 24.87324959 -24.3125 23.8125 C-23.81363281 23.22082031 -23.31476562 22.62914062 -22.80078125 22.01953125 C-18.09847969 16.74601736 -12.84662661 12.00545112 -7.6875 7.1875 C-6.94693359 6.49462891 -6.20636719 5.80175781 -5.44335938 5.08789062 C-3.62961716 3.39116403 -1.81514792 1.69522249 0 0 Z " fill="#222121" transform="translate(585,394)"/>
<path d="M0 0 C1.11084961 0.07831055 1.11084961 0.07831055 2.24414062 0.15820312 C4.05902709 0.28700152 5.87333325 0.42393262 7.6875 0.5625 C7.6875 0.8925 7.6875 1.2225 7.6875 1.5625 C7.11829834 1.56137207 6.54909668 1.56024414 5.96264648 1.55908203 C3.34893604 1.57129191 0.73806958 1.62906658 -1.875 1.6875 C-2.77025391 1.68492187 -3.66550781 1.68234375 -4.58789062 1.6796875 C-10.63878193 1.857003 -13.81523458 2.99870499 -18.14819336 7.28076172 C-18.53241455 7.70373535 -18.91663574 8.12670898 -19.3125 8.5625 C-18.0470464 4.66068474 -16.90908191 2.61768966 -13.3125 0.5625 C-8.85336662 -0.71271342 -4.56431166 -0.35486605 0 0 Z " fill="#2B2A2A" transform="translate(160.3125,350.4375)"/>
<path d="M0 0 C-4.91703301 2.54329294 -8.14179552 3.05667169 -13.6875 2.5625 C-14.86699219 2.46066406 -16.04648437 2.35882812 -17.26171875 2.25390625 C-18.61716797 2.12822266 -18.61716797 2.12822266 -20 2 C-20 1.67 -20 1.34 -20 1 C-13.31184516 0.37577221 -6.71884955 -0.12920865 0 0 Z " fill="#3B3B3B" transform="translate(800,701)"/>
<path d="M0 0 C0.33 0 0.66 0 1 0 C1 4.62 1 9.24 1 14 C0.67 14 0.34 14 0 14 C0 9.38 0 4.76 0 0 Z " fill="#292929" transform="translate(856,527)"/>
<path d="M0 0 C0.33 0 0.66 0 1 0 C1 2.97 1 5.94 1 9 C0.67 9 0.34 9 0 9 C0 6.03 0 3.06 0 0 Z " fill="#2A2A2A" transform="translate(856,551)"/>
<path d="M0 0 C0.33 0 0.66 0 1 0 C1 2.97 1 5.94 1 9 C0.67 9 0.34 9 0 9 C0 6.03 0 3.06 0 0 Z " fill="#2C2B2A" transform="translate(856,502)"/>
<path d="M0 0 C2.31 0 4.62 0 7 0 C7 0.33 7 0.66 7 1 C4.69 1 2.38 1 0 1 C0 0.67 0 0.34 0 0 Z " fill="#2C2B2C" transform="translate(800,703)"/>
<path d="M0 0 C0.33 0 0.66 0 1 0 C1 2.31 1 4.62 1 7 C0.67 7 0.34 7 0 7 C0 4.69 0 2.38 0 0 Z " fill="#2A2B2B" transform="translate(496,534)"/>
<path d="M0 0 C0.33 0 0.66 0 1 0 C1 2.31 1 4.62 1 7 C0.67 7 0.34 7 0 7 C0 4.69 0 2.38 0 0 Z " fill="#292A2A" transform="translate(496,526)"/>
<path d="M0 0 C0.33 0 0.66 0 1 0 C1 2.31 1 4.62 1 7 C0.67 7 0.34 7 0 7 C0 4.69 0 2.38 0 0 Z " fill="#292829" transform="translate(496,518)"/>
<path d="M0 0 C0.33 0 0.66 0 1 0 C1 2.31 1 4.62 1 7 C0.67 7 0.34 7 0 7 C0 4.69 0 2.38 0 0 Z " fill="#2A2A29" transform="translate(856,462)"/>
<path d="M0 0 C0.33 0 0.66 0 1 0 C1 1.98 1 3.96 1 6 C0.67 6 0.34 6 0 6 C0 4.02 0 2.04 0 0 Z " fill="#2C2C2C" transform="translate(839,608)"/>
<path d="M0 0 C0.33 0 0.66 0 1 0 C1 1.98 1 3.96 1 6 C0.67 6 0.34 6 0 6 C0 4.02 0 2.04 0 0 Z " fill="#2A2A29" transform="translate(856,543)"/>
<path d="M0 0 C0.33 0 0.66 0 1 0 C1 1.65 1 3.3 1 5 C0.67 5 0.34 5 0 5 C0 3.35 0 1.7 0 0 Z " fill="#29292A" transform="translate(496,696)"/>
<path d="M0 0 C0.33 0 0.66 0 1 0 C1 1.65 1 3.3 1 5 C0.67 5 0.34 5 0 5 C0 3.35 0 1.7 0 0 Z " fill="#2B2B2C" transform="translate(496,672)"/>
<path d="M0 0 C0.33 0 0.66 0 1 0 C1 1.65 1 3.3 1 5 C0.67 5 0.34 5 0 5 C0 3.35 0 1.7 0 0 Z " fill="#2B2C2C" transform="translate(496,664)"/>
<path d="M0 0 C0.33 0 0.66 0 1 0 C1 1.65 1 3.3 1 5 C0.67 5 0.34 5 0 5 C0 3.35 0 1.7 0 0 Z " fill="#2B2B2B" transform="translate(496,648)"/>
<path d="M0 0 C0.33 0 0.66 0 1 0 C1 1.65 1 3.3 1 5 C0.67 5 0.34 5 0 5 C0 3.35 0 1.7 0 0 Z " fill="#2B2B2C" transform="translate(496,600)"/>
<path d="M0 0 C0.33 0 0.66 0 1 0 C1 1.65 1 3.3 1 5 C0.67 5 0.34 5 0 5 C0 3.35 0 1.7 0 0 Z " fill="#2C2B2B" transform="translate(856,592)"/>
<path d="M0 0 C0.33 0 0.66 0 1 0 C1 1.65 1 3.3 1 5 C0.67 5 0.34 5 0 5 C0 3.35 0 1.7 0 0 Z " fill="#2A2A2A" transform="translate(856,584)"/>
<path d="M0 0 C0.33 0 0.66 0 1 0 C1 1.65 1 3.3 1 5 C0.67 5 0.34 5 0 5 C0 3.35 0 1.7 0 0 Z " fill="#2B2A2A" transform="translate(856,568)"/>
<path d="M0 0 C0.33 0 0.66 0 1 0 C1 1.65 1 3.3 1 5 C0.67 5 0.34 5 0 5 C0 3.35 0 1.7 0 0 Z " fill="#282929" transform="translate(496,560)"/>
<path d="M0 0 C0.33 0 0.66 0 1 0 C1 1.65 1 3.3 1 5 C0.67 5 0.34 5 0 5 C0 3.35 0 1.7 0 0 Z " fill="#2A2A2A" transform="translate(496,544)"/>
<path d="M0 0 C4 1 4 1 4 1 Z " fill="#2B2B2A" transform="translate(719,682)"/>
<path d="M0 0 C4 1 4 1 4 1 Z " fill="#292828" transform="translate(291,680)"/>
<path d="M0 0 C1 4 1 4 1 4 Z " fill="#2D2D2E" transform="translate(856,640)"/>
<path d="M0 0 C1 4 1 4 1 4 Z " fill="#2D2C2B" transform="translate(856,618)"/>
<path d="M0 0 C1 4 1 4 1 4 Z " fill="#2A2929" transform="translate(856,473)"/>
<path d="M0 0 C0.99 0.33 1.98 0.66 3 1 C2.01 1 1.02 1 0 1 C0 0.67 0 0.34 0 0 Z " fill="#2E2E2E" transform="translate(632,296)"/>
<path d="M0 0 C3 1 3 1 3 1 Z " fill="#2C2B29" transform="translate(658,698)"/>
<path d="M0 0 C3 1 3 1 3 1 Z " fill="#2A2928" transform="translate(687,689)"/>
<path d="" fill="#2A292B" transform="translate(0,0)"/>
<path d="M0 0 C3 1 3 1 3 1 Z " fill="#2E2F2D" transform="translate(816,673)"/>
<path d="M0 0 C0.66 0 1.32 0 2 0 C1.67 0.66 1.34 1.32 1 2 C0.67 1.34 0.34 0.68 0 0 Z " fill="#2A2928" transform="translate(656,664)"/>
<path d="" fill="#29292B" transform="translate(0,0)"/>
<path d="" fill="#31312F" transform="translate(0,0)"/>
<path d="" fill="#2B2A2A" transform="translate(0,0)"/>
<path d="" fill="#2B2B2C" transform="translate(0,0)"/>
<path d="" fill="#2A2A2B" transform="translate(0,0)"/>
<path d="" fill="#282927" transform="translate(0,0)"/>
<path d="M0 0 C0.99 0.495 0.99 0.495 2 1 C1.01 1.495 1.01 1.495 0 2 C0 1.34 0 0.68 0 0 Z " fill="#2C2B2A" transform="translate(400,405)"/>
<path d="" fill="#2B2A29" transform="translate(0,0)"/>
<path d="M0 0 C0.99 0.495 0.99 0.495 2 1 C1.01 1.495 1.01 1.495 0 2 C0 1.34 0 0.68 0 0 Z " fill="#2E2D2D" transform="translate(620,306)"/>
<path d="M0 0 C3 1 3 1 3 1 Z " fill="#2C2B2C" transform="translate(746,304)"/>
<path d="M0 0 C0.99 0.495 0.99 0.495 2 1 C1.01 1.495 1.01 1.495 0 2 C0 1.34 0 0.68 0 0 Z " fill="#2D2C2C" transform="translate(299,286)"/>
<path d="" fill="#323131" transform="translate(0,0)"/>
<path d="M0 0 C2 1 2 1 2 1 Z " fill="#2E2E2D" transform="translate(490,789)"/>
<path d="M0 0 C2 1 2 1 2 1 Z " fill="#2E2D2C" transform="translate(392,741)"/>
<path d="" fill="#2B2A2A" transform="translate(0,0)"/>
<path d="M0 0 C2 1 2 1 2 1 Z " fill="#2C2A2A" transform="translate(291,710)"/>
<path d="" fill="#282826" transform="translate(0,0)"/>
<path d="M0 0 C2 1 2 1 2 1 Z " fill="#262627" transform="translate(797,703)"/>
<path d="M0 0 C2 1 2 1 2 1 Z " fill="#2D2C2D" transform="translate(220,703)"/>
<path d="M0 0 C2 1 2 1 2 1 Z " fill="#2A2929" transform="translate(661,697)"/>
<path d="M0 0 C2 1 2 1 2 1 Z " fill="#2A2727" transform="translate(664,696)"/>
<path d="M0 0 C2 1 2 1 2 1 Z " fill="#2D2B2B" transform="translate(354,693)"/>
<path d="" fill="#2B2A28" transform="translate(0,0)"/>
<path d="M0 0 C2 1 2 1 2 1 Z " fill="#282625" transform="translate(335,689)"/>
<path d="M0 0 C2 1 2 1 2 1 Z " fill="#262525" transform="translate(624,682)"/>
<path d="" fill="#272728" transform="translate(0,0)"/>
<path d="M0 0 C2 1 2 1 2 1 Z " fill="#2A2B29" transform="translate(721,680)"/>
<path d="M0 0 C2 1 2 1 2 1 Z " fill="#272627" transform="translate(209,673)"/>
<path d="M0 0 C2 1 2 1 2 1 Z " fill="#2A2728" transform="translate(178,673)"/>
<path d="M0 0 C2 1 2 1 2 1 Z " fill="#2A2829" transform="translate(167,673)"/>
<path d="" fill="#32312F" transform="translate(0,0)"/>
<path d="M0 0 C2 1 2 1 2 1 Z " fill="#282626" transform="translate(660,664)"/>
<path d="" fill="#2B2B2C" transform="translate(0,0)"/>
<path d="" fill="#312F32" transform="translate(0,0)"/>
<path d="M0 0 C2 1 2 1 2 1 Z " fill="#2B2B2B" transform="translate(695,649)"/>
<path d="M0 0 C2 1 2 1 2 1 Z " fill="#2A2A29" transform="translate(324,648)"/>
<path d="M0 0 C2 1 2 1 2 1 Z " fill="#2F2E2C" transform="translate(275,632)"/>
<path d="" fill="#302F2E" transform="translate(0,0)"/>
<path d="" fill="#2B2C2B" transform="translate(0,0)"/>
<path d="" fill="#292B2A" transform="translate(0,0)"/>
<path d="" fill="#2A2B2B" transform="translate(0,0)"/>
<path d="" fill="#2C2B2C" transform="translate(0,0)"/>
<path d="" fill="#303330" transform="translate(0,0)"/>
<path d="" fill="#2C2C2C" transform="translate(0,0)"/>
<path d="" fill="#2A2A29" transform="translate(0,0)"/>
<path d="" fill="#2A2B2A" transform="translate(0,0)"/>
<path d="" fill="#2B2A2C" transform="translate(0,0)"/>
<path d="" fill="#2A2A29" transform="translate(0,0)"/>
<path d="M0 0 C2 1 2 1 2 1 Z " fill="#2C2C2B" transform="translate(488,504)"/>
<path d="" fill="#222021" transform="translate(0,0)"/>
<path d="" fill="#292828" transform="translate(0,0)"/>
<path d="" fill="#2A2728" transform="translate(0,0)"/>
<path d="" fill="#262829" transform="translate(0,0)"/>
<path d="M0 0 C2 1 2 1 2 1 Z " fill="#262625" transform="translate(457,408)"/>
<path d="" fill="#262526" transform="translate(0,0)"/>
<path d="M0 0 C2 1 2 1 2 1 Z " fill="#282928" transform="translate(614,368)"/>
<path d="M0 0 C2 1 2 1 2 1 Z " fill="#272626" transform="translate(609,368)"/>
<path d="M0 0 C2 1 2 1 2 1 Z " fill="#2D2C2B" transform="translate(344,365)"/>
<path d="M0 0 C2 1 2 1 2 1 Z " fill="#272425" transform="translate(384,352)"/>
<path d="" fill="#313030" transform="translate(0,0)"/>
<path d="M0 0 C2 1 2 1 2 1 Z " fill="#302F2E" transform="translate(282,339)"/>
<path d="M0 0 C2 1 2 1 2 1 Z " fill="#292828" transform="translate(359,337)"/>
<path d="" fill="#272828" transform="translate(0,0)"/>
<path d="M0 0 C2 1 2 1 2 1 Z " fill="#302F2E" transform="translate(257,331)"/>
<path d="M0 0 C2 1 2 1 2 1 Z " fill="#30312F" transform="translate(228,324)"/>
<path d="M0 0 C2 1 2 1 2 1 Z " fill="#2D2C2B" transform="translate(744,305)"/>
<path d="M0 0 C2 1 2 1 2 1 Z " fill="#363534" transform="translate(212,289)"/>
<path d="M0 0 C2 1 2 1 2 1 Z " fill="#2D2E2E" transform="translate(745,278)"/>
<path d="M0 0 C2 1 2 1 2 1 Z " fill="#323130" transform="translate(309,256)"/>
<path d="M0 0 C2 1 2 1 2 1 Z " fill="#343332" transform="translate(290,250)"/>
<path d="" fill="#5A5A5A" transform="translate(0,0)"/>
<path d="" fill="#333231" transform="translate(0,0)"/>
<path d="" fill="#2D2D2E" transform="translate(0,0)"/>
<path d="" fill="#2E2F2E" transform="translate(0,0)"/>
<path d="" fill="#2F2D2D" transform="translate(0,0)"/>
<path d="" fill="#2A2C2A" transform="translate(0,0)"/>
<path d="" fill="#2A2A29" transform="translate(0,0)"/>
<path d="" fill="#2B2829" transform="translate(0,0)"/>
<path d="" fill="#232423" transform="translate(0,0)"/>
<path d="" fill="#282728" transform="translate(0,0)"/>
<path d="" fill="#232524" transform="translate(0,0)"/>
<path d="" fill="#242525" transform="translate(0,0)"/>
<path d="" fill="#292A28" transform="translate(0,0)"/>
<path d="" fill="#2D2D2B" transform="translate(0,0)"/>
<path d="" fill="#252524" transform="translate(0,0)"/>
<path d="" fill="#2B2B28" transform="translate(0,0)"/>
<path d="" fill="#262525" transform="translate(0,0)"/>
<path d="" fill="#262627" transform="translate(0,0)"/>
<path d="" fill="#262726" transform="translate(0,0)"/>
<path d="" fill="#252827" transform="translate(0,0)"/>
<path d="" fill="#2F2E2C" transform="translate(0,0)"/>
<path d="" fill="#272728" transform="translate(0,0)"/>
<path d="" fill="#272625" transform="translate(0,0)"/>
<path d="" fill="#2C2A2A" transform="translate(0,0)"/>
<path d="" fill="#282928" transform="translate(0,0)"/>
<path d="" fill="#282729" transform="translate(0,0)"/>
<path d="" fill="#282729" transform="translate(0,0)"/>
<path d="" fill="#2B2B2A" transform="translate(0,0)"/>
<path d="" fill="#2C2C2B" transform="translate(0,0)"/>
<path d="" fill="#2B292B" transform="translate(0,0)"/>
<path d="" fill="#2E302F" transform="translate(0,0)"/>
<path d="" fill="#2D2D29" transform="translate(0,0)"/>
<path d="" fill="#2D2F2E" transform="translate(0,0)"/>
<path d="" fill="#2A2C28" transform="translate(0,0)"/>
<path d="" fill="#2F2E2C" transform="translate(0,0)"/>
<path d="" fill="#2E2E2D" transform="translate(0,0)"/>
<path d="" fill="#2A2928" transform="translate(0,0)"/>
<path d="" fill="#2D2C2B" transform="translate(0,0)"/>
<path d="" fill="#2B2A29" transform="translate(0,0)"/>
<path d="" fill="#2C2C2A" transform="translate(0,0)"/>
<path d="" fill="#282724" transform="translate(0,0)"/>
<path d="" fill="#262627" transform="translate(0,0)"/>
<path d="" fill="#292926" transform="translate(0,0)"/>
<path d="" fill="#3A3839" transform="translate(0,0)"/>
<path d="" fill="#313332" transform="translate(0,0)"/>
<path d="" fill="#2D2D2E" transform="translate(0,0)"/>
<path d="" fill="#292A29" transform="translate(0,0)"/>
<path d="" fill="#3E3D3D" transform="translate(0,0)"/>
<path d="" fill="#3F3D3E" transform="translate(0,0)"/>
<path d="" fill="#3F3D3D" transform="translate(0,0)"/>
<path d="" fill="#2B2625" transform="translate(0,0)"/>
<path d="" fill="#272426" transform="translate(0,0)"/>
<path d="" fill="#2B292B" transform="translate(0,0)"/>
<path d="" fill="#38383A" transform="translate(0,0)"/>
<path d="" fill="#3C3C3A" transform="translate(0,0)"/>
<path d="" fill="#292827" transform="translate(0,0)"/>
<path d="" fill="#393B3A" transform="translate(0,0)"/>
<path d="" fill="#272827" transform="translate(0,0)"/>
<path d="" fill="#2C2C2C" transform="translate(0,0)"/>
<path d="" fill="#2B2B2C" transform="translate(0,0)"/>
<path d="" fill="#2C2A29" transform="translate(0,0)"/>
<path d="" fill="#292A27" transform="translate(0,0)"/>
<path d="" fill="#272727" transform="translate(0,0)"/>
<path d="" fill="#3A3A39" transform="translate(0,0)"/>
<path d="" fill="#2C292A" transform="translate(0,0)"/>
<path d="" fill="#292928" transform="translate(0,0)"/>
<path d="" fill="#272727" transform="translate(0,0)"/>
<path d="" fill="#2C2B2A" transform="translate(0,0)"/>
<path d="" fill="#3A393A" transform="translate(0,0)"/>
<path d="" fill="#292426" transform="translate(0,0)"/>
<path d="" fill="#2C2B29" transform="translate(0,0)"/>
<path d="" fill="#262628" transform="translate(0,0)"/>
<path d="" fill="#2A2B2B" transform="translate(0,0)"/>
<path d="" fill="#2B2C2B" transform="translate(0,0)"/>
<path d="" fill="#232321" transform="translate(0,0)"/>
<path d="" fill="#282729" transform="translate(0,0)"/>
<path d="" fill="#363737" transform="translate(0,0)"/>
<path d="" fill="#292927" transform="translate(0,0)"/>
<path d="" fill="#2B2A2A" transform="translate(0,0)"/>
<path d="" fill="#2B2B2C" transform="translate(0,0)"/>
<path d="" fill="#292826" transform="translate(0,0)"/>
<path d="" fill="#2C2C2B" transform="translate(0,0)"/>
<path d="" fill="#2A2929" transform="translate(0,0)"/>
<path d="" fill="#252728" transform="translate(0,0)"/>
<path d="" fill="#353734" transform="translate(0,0)"/>
<path d="" fill="#2A2A29" transform="translate(0,0)"/>
<path d="" fill="#2A2C2A" transform="translate(0,0)"/>
<path d="" fill="#2B292A" transform="translate(0,0)"/>
<path d="" fill="#2F2E2F" transform="translate(0,0)"/>
<path d="" fill="#2E2F2D" transform="translate(0,0)"/>
<path d="" fill="#2C2E2B" transform="translate(0,0)"/>
<path d="" fill="#30312E" transform="translate(0,0)"/>
<path d="" fill="#2A2929" transform="translate(0,0)"/>
<path d="" fill="#2E302C" transform="translate(0,0)"/>
<path d="" fill="#2D2D2D" transform="translate(0,0)"/>
<path d="" fill="#272B27" transform="translate(0,0)"/>
<path d="" fill="#292625" transform="translate(0,0)"/>
<path d="" fill="#282726" transform="translate(0,0)"/>
<path d="" fill="#2C292B" transform="translate(0,0)"/>
<path d="" fill="#343334" transform="translate(0,0)"/>
<path d="" fill="#2E2C2C" transform="translate(0,0)"/>
<path d="" fill="#2D2D2F" transform="translate(0,0)"/>
<path d="" fill="#2C2C2B" transform="translate(0,0)"/>
<path d="" fill="#2A2A2A" transform="translate(0,0)"/>
<path d="" fill="#2E2D2D" transform="translate(0,0)"/>
<path d="" fill="#2C2D29" transform="translate(0,0)"/>
<path d="" fill="#2B2A29" transform="translate(0,0)"/>
<path d="" fill="#2F2F2B" transform="translate(0,0)"/>
<path d="" fill="#2B2B2B" transform="translate(0,0)"/>
<path d="" fill="#2C2B2A" transform="translate(0,0)"/>
<path d="" fill="#2A2627" transform="translate(0,0)"/>
<path d="" fill="#323231" transform="translate(0,0)"/>
<path d="" fill="#292828" transform="translate(0,0)"/>
<path d="" fill="#2D2D2B" transform="translate(0,0)"/>
<path d="" fill="#2D2D29" transform="translate(0,0)"/>
<path d="" fill="#323031" transform="translate(0,0)"/>
<path d="" fill="#2C2B2B" transform="translate(0,0)"/>
<path d="" fill="#2C2B2B" transform="translate(0,0)"/>
<path d="" fill="#2E2E2D" transform="translate(0,0)"/>
<path d="" fill="#2C2C2B" transform="translate(0,0)"/>
<path d="" fill="#313030" transform="translate(0,0)"/>
<path d="" fill="#2F2D2D" transform="translate(0,0)"/>
<path d="" fill="#2C2D2C" transform="translate(0,0)"/>
<path d="" fill="#2D2E2D" transform="translate(0,0)"/>
<path d="" fill="#2F3330" transform="translate(0,0)"/>
<path d="" fill="#2F2E2C" transform="translate(0,0)"/>
<path d="" fill="#2D2B29" transform="translate(0,0)"/>
<path d="" fill="#2C2A2A" transform="translate(0,0)"/>
<path d="" fill="#2F2E2E" transform="translate(0,0)"/>
<path d="" fill="#302F2E" transform="translate(0,0)"/>
<path d="" fill="#30322F" transform="translate(0,0)"/>
<path d="" fill="#2D2F2D" transform="translate(0,0)"/>
<path d="" fill="#31302E" transform="translate(0,0)"/>
<path d="" fill="#2F2D2B" transform="translate(0,0)"/>
<path d="" fill="#2E2E2B" transform="translate(0,0)"/>
<path d="" fill="#323032" transform="translate(0,0)"/>
<path d="" fill="#2C2B2A" transform="translate(0,0)"/>
<path d="" fill="#292928" transform="translate(0,0)"/>
<path d="" fill="#2D2D2C" transform="translate(0,0)"/>
<path d="" fill="#302F30" transform="translate(0,0)"/>
<path d="" fill="#2C2B2D" transform="translate(0,0)"/>
<path d="" fill="#2B2B2C" transform="translate(0,0)"/>
<path d="" fill="#2B2B2C" transform="translate(0,0)"/>
<path d="" fill="#302F2C" transform="translate(0,0)"/>
<path d="" fill="#2D2B2B" transform="translate(0,0)"/>
<path d="" fill="#2F2D2F" transform="translate(0,0)"/>
<path d="" fill="#2E2E2E" transform="translate(0,0)"/>
<path d="" fill="#2F2E2D" transform="translate(0,0)"/>
<path d="" fill="#2B2A2C" transform="translate(0,0)"/>
<path d="" fill="#313130" transform="translate(0,0)"/>
<path d="" fill="#333030" transform="translate(0,0)"/>
<path d="" fill="#2E2F2C" transform="translate(0,0)"/>
<path d="" fill="#2A2B2C" transform="translate(0,0)"/>
<path d="" fill="#31332E" transform="translate(0,0)"/>
<path d="" fill="#2D2B2B" transform="translate(0,0)"/>
<path d="" fill="#302E2E" transform="translate(0,0)"/>
<path d="" fill="#2C2C2C" transform="translate(0,0)"/>
<path d="" fill="#282829" transform="translate(0,0)"/>
<path d="" fill="#302C30" transform="translate(0,0)"/>
<path d="" fill="#2F2F2F" transform="translate(0,0)"/>
<path d="" fill="#2D2E30" transform="translate(0,0)"/>
<path d="" fill="#2C2D2C" transform="translate(0,0)"/>
<path d="" fill="#2B2C2A" transform="translate(0,0)"/>
<path d="" fill="#2C2E30" transform="translate(0,0)"/>
<path d="" fill="#2E2B2B" transform="translate(0,0)"/>
<path d="" fill="#2B2B2B" transform="translate(0,0)"/>
<path d="" fill="#2D2E2D" transform="translate(0,0)"/>
<path d="" fill="#2E2C2D" transform="translate(0,0)"/>
<path d="" fill="#2E2E2E" transform="translate(0,0)"/>
<path d="" fill="#2C2C2E" transform="translate(0,0)"/>
<path d="" fill="#2F2F2F" transform="translate(0,0)"/>
<path d="" fill="#2A2C2D" transform="translate(0,0)"/>
<path d="" fill="#2B292B" transform="translate(0,0)"/>
<path d="" fill="#2C2B2B" transform="translate(0,0)"/>
<path d="" fill="#292B2B" transform="translate(0,0)"/>
<path d="" fill="#2B292B" transform="translate(0,0)"/>
<path d="" fill="#282929" transform="translate(0,0)"/>
<path d="" fill="#2C2B2B" transform="translate(0,0)"/>
<path d="" fill="#343432" transform="translate(0,0)"/>
<path d="" fill="#2A2C2A" transform="translate(0,0)"/>
<path d="" fill="#2C2C2B" transform="translate(0,0)"/>
<path d="" fill="#2C2B2B" transform="translate(0,0)"/>
<path d="" fill="#323334" transform="translate(0,0)"/>
<path d="" fill="#2F3132" transform="translate(0,0)"/>
<path d="" fill="#2B2D2B" transform="translate(0,0)"/>
<path d="" fill="#2F3231" transform="translate(0,0)"/>
<path d="" fill="#343432" transform="translate(0,0)"/>
<path d="" fill="#2D2D2E" transform="translate(0,0)"/>
<path d="" fill="#30302F" transform="translate(0,0)"/>
<path d="" fill="#313030" transform="translate(0,0)"/>
<path d="" fill="#333234" transform="translate(0,0)"/>
<path d="" fill="#333231" transform="translate(0,0)"/>
<path d="" fill="#313131" transform="translate(0,0)"/>
<path d="" fill="#292A2C" transform="translate(0,0)"/>
<path d="" fill="#2A2A28" transform="translate(0,0)"/>
<path d="" fill="#2F2F2F" transform="translate(0,0)"/>
<path d="" fill="#292A26" transform="translate(0,0)"/>
<path d="" fill="#333432" transform="translate(0,0)"/>
<path d="" fill="#323331" transform="translate(0,0)"/>
<path d="" fill="#353535" transform="translate(0,0)"/>
<path d="" fill="#2A2B2A" transform="translate(0,0)"/>
<path d="" fill="#313231" transform="translate(0,0)"/>
<path d="" fill="#2C2D2C" transform="translate(0,0)"/>
<path d="" fill="#323130" transform="translate(0,0)"/>
<path d="" fill="#2A2B2A" transform="translate(0,0)"/>
<path d="" fill="#2D2E2D" transform="translate(0,0)"/>
<path d="" fill="#2C2C2C" transform="translate(0,0)"/>
<path d="" fill="#2C2C2B" transform="translate(0,0)"/>
<path d="" fill="#313132" transform="translate(0,0)"/>
<path d="" fill="#2D2A2B" transform="translate(0,0)"/>
<path d="" fill="#32312F" transform="translate(0,0)"/>
<path d="" fill="#302F30" transform="translate(0,0)"/>
<path d="" fill="#2A2B2A" transform="translate(0,0)"/>
<path d="" fill="#2A2A27" transform="translate(0,0)"/>
<path d="" fill="#292728" transform="translate(0,0)"/>
<path d="" fill="#282827" transform="translate(0,0)"/>
<path d="" fill="#2A2928" transform="translate(0,0)"/>
<path d="" fill="#322F30" transform="translate(0,0)"/>
<path d="" fill="#2B2B2A" transform="translate(0,0)"/>
<path d="" fill="#2B292A" transform="translate(0,0)"/>
<path d="" fill="#2A2828" transform="translate(0,0)"/>
<path d="" fill="#2A2A28" transform="translate(0,0)"/>
<path d="" fill="#2A2B2A" transform="translate(0,0)"/>
<path d="" fill="#323135" transform="translate(0,0)"/>
<path d="" fill="#333130" transform="translate(0,0)"/>
<path d="" fill="#292A28" transform="translate(0,0)"/>
<path d="" fill="#2A282A" transform="translate(0,0)"/>
<path d="" fill="#222221" transform="translate(0,0)"/>
<path d="" fill="#2B2B2C" transform="translate(0,0)"/>
<path d="" fill="#222121" transform="translate(0,0)"/>
<path d="" fill="#312F2F" transform="translate(0,0)"/>
<path d="" fill="#27282A" transform="translate(0,0)"/>
<path d="" fill="#302D2C" transform="translate(0,0)"/>
<path d="" fill="#2F302E" transform="translate(0,0)"/>
<path d="" fill="#2D2D2B" transform="translate(0,0)"/>
<path d="" fill="#333131" transform="translate(0,0)"/>
<path d="" fill="#2F2D2D" transform="translate(0,0)"/>
<path d="" fill="#2A282A" transform="translate(0,0)"/>
<path d="" fill="#2D2B2C" transform="translate(0,0)"/>
<path d="" fill="#2E2D2C" transform="translate(0,0)"/>
<path d="" fill="#28292A" transform="translate(0,0)"/>
<path d="" fill="#2C2C2C" transform="translate(0,0)"/>
<path d="" fill="#272726" transform="translate(0,0)"/>
<path d="" fill="#242624" transform="translate(0,0)"/>
<path d="" fill="#313330" transform="translate(0,0)"/>
<path d="" fill="#292828" transform="translate(0,0)"/>
<path d="" fill="#252324" transform="translate(0,0)"/>
<path d="" fill="#262423" transform="translate(0,0)"/>
<path d="" fill="#242421" transform="translate(0,0)"/>
<path d="" fill="#2B2B2A" transform="translate(0,0)"/>
<path d="" fill="#2E2D2B" transform="translate(0,0)"/>
<path d="" fill="#292928" transform="translate(0,0)"/>
<path d="" fill="#282825" transform="translate(0,0)"/>
<path d="" fill="#2F2F2D" transform="translate(0,0)"/>
<path d="" fill="#282828" transform="translate(0,0)"/>
<path d="" fill="#242425" transform="translate(0,0)"/>
<path d="" fill="#262322" transform="translate(0,0)"/>
<path d="" fill="#2A2A29" transform="translate(0,0)"/>
<path d="" fill="#2C2B2C" transform="translate(0,0)"/>
<path d="" fill="#2C2D2C" transform="translate(0,0)"/>
<path d="" fill="#292724" transform="translate(0,0)"/>
<path d="" fill="#292626" transform="translate(0,0)"/>
<path d="" fill="#2D2C29" transform="translate(0,0)"/>
<path d="" fill="#2F2D2C" transform="translate(0,0)"/>
<path d="" fill="#292727" transform="translate(0,0)"/>
<path d="" fill="#292A2A" transform="translate(0,0)"/>
<path d="" fill="#272626" transform="translate(0,0)"/>
<path d="" fill="#2A2727" transform="translate(0,0)"/>
<path d="" fill="#272423" transform="translate(0,0)"/>
<path d="" fill="#2F302E" transform="translate(0,0)"/>
<path d="" fill="#2C2B2C" transform="translate(0,0)"/>
<path d="" fill="#2C2A2A" transform="translate(0,0)"/>
<path d="" fill="#282928" transform="translate(0,0)"/>
<path d="" fill="#282826" transform="translate(0,0)"/>
<path d="" fill="#282827" transform="translate(0,0)"/>
<path d="" fill="#292927" transform="translate(0,0)"/>
<path d="" fill="#2E2E2C" transform="translate(0,0)"/>
<path d="" fill="#242523" transform="translate(0,0)"/>
<path d="" fill="#252626" transform="translate(0,0)"/>
<path d="" fill="#343435" transform="translate(0,0)"/>
<path d="" fill="#252325" transform="translate(0,0)"/>
<path d="" fill="#242323" transform="translate(0,0)"/>
<path d="" fill="#2B2928" transform="translate(0,0)"/>
<path d="" fill="#2E2D2C" transform="translate(0,0)"/>
<path d="" fill="#2E2E2C" transform="translate(0,0)"/>
<path d="" fill="#2E2F2E" transform="translate(0,0)"/>
<path d="" fill="#2D2B2C" transform="translate(0,0)"/>
<path d="" fill="#262525" transform="translate(0,0)"/>
<path d="" fill="#262525" transform="translate(0,0)"/>
<path d="" fill="#282425" transform="translate(0,0)"/>
<path d="" fill="#232424" transform="translate(0,0)"/>
<path d="" fill="#272827" transform="translate(0,0)"/>
<path d="" fill="#30312F" transform="translate(0,0)"/>
<path d="" fill="#2C2C2C" transform="translate(0,0)"/>
<path d="" fill="#30302F" transform="translate(0,0)"/>
<path d="" fill="#2F2E2E" transform="translate(0,0)"/>
<path d="" fill="#2E2E2B" transform="translate(0,0)"/>
<path d="" fill="#262825" transform="translate(0,0)"/>
<path d="" fill="#272926" transform="translate(0,0)"/>
<path d="" fill="#2D2928" transform="translate(0,0)"/>
<path d="" fill="#292A28" transform="translate(0,0)"/>
<path d="" fill="#2A2B2A" transform="translate(0,0)"/>
<path d="" fill="#2D2E2B" transform="translate(0,0)"/>
<path d="" fill="#2D2C2A" transform="translate(0,0)"/>
<path d="" fill="#2B2928" transform="translate(0,0)"/>
<path d="" fill="#272626" transform="translate(0,0)"/>
<path d="" fill="#2E2D2D" transform="translate(0,0)"/>
<path d="" fill="#2A2929" transform="translate(0,0)"/>
<path d="" fill="#2D2E2C" transform="translate(0,0)"/>
<path d="" fill="#2E2D2B" transform="translate(0,0)"/>
<path d="" fill="#2F2D2B" transform="translate(0,0)"/>
<path d="" fill="#2B2A2B" transform="translate(0,0)"/>
<path d="" fill="#2B2A2A" transform="translate(0,0)"/>
<path d="" fill="#3B3B39" transform="translate(0,0)"/>
<path d="" fill="#292829" transform="translate(0,0)"/>
<path d="" fill="#282826" transform="translate(0,0)"/>
<path d="" fill="#2C292A" transform="translate(0,0)"/>
<path d="" fill="#3B3C3A" transform="translate(0,0)"/>
<path d="" fill="#272626" transform="translate(0,0)"/>
<path d="" fill="#292827" transform="translate(0,0)"/>
<path d="" fill="#312D2E" transform="translate(0,0)"/>
<path d="" fill="#2B2A29" transform="translate(0,0)"/>
<path d="" fill="#2D2D2F" transform="translate(0,0)"/>
<path d="" fill="#312D2E" transform="translate(0,0)"/>
<path d="" fill="#2D2C2A" transform="translate(0,0)"/>
<path d="" fill="#2A2829" transform="translate(0,0)"/>
<path d="" fill="#2B292A" transform="translate(0,0)"/>
<path d="" fill="#312F2F" transform="translate(0,0)"/>
<path d="" fill="#282826" transform="translate(0,0)"/>
<path d="" fill="#282629" transform="translate(0,0)"/>
<path d="" fill="#272827" transform="translate(0,0)"/>
<path d="" fill="#282A26" transform="translate(0,0)"/>
<path d="" fill="#2A2B2A" transform="translate(0,0)"/>
<path d="" fill="#2A2828" transform="translate(0,0)"/>
<path d="" fill="#2B2A2B" transform="translate(0,0)"/>
<path d="" fill="#292A2B" transform="translate(0,0)"/>
<path d="" fill="#272828" transform="translate(0,0)"/>
<path d="" fill="#323131" transform="translate(0,0)"/>
<path d="" fill="#2F302E" transform="translate(0,0)"/>
<path d="" fill="#292827" transform="translate(0,0)"/>
<path d="" fill="#292729" transform="translate(0,0)"/>
<path d="" fill="#2A2B29" transform="translate(0,0)"/>
<path d="" fill="#292727" transform="translate(0,0)"/>
<path d="" fill="#2C2A2B" transform="translate(0,0)"/>
<path d="" fill="#2E2D2D" transform="translate(0,0)"/>
<path d="" fill="#2A2827" transform="translate(0,0)"/>
<path d="" fill="#2E2D2D" transform="translate(0,0)"/>
<path d="" fill="#2E2B2B" transform="translate(0,0)"/>
<path d="" fill="#30322F" transform="translate(0,0)"/>
<path d="" fill="#323132" transform="translate(0,0)"/>
<path d="" fill="#2A2A29" transform="translate(0,0)"/>
<path d="" fill="#2C2C2B" transform="translate(0,0)"/>
<path d="" fill="#2D2E2B" transform="translate(0,0)"/>
<path d="" fill="#2A292A" transform="translate(0,0)"/>
<path d="" fill="#292A2A" transform="translate(0,0)"/>
<path d="" fill="#2D2D2D" transform="translate(0,0)"/>
<path d="" fill="#292928" transform="translate(0,0)"/>
<path d="" fill="#2D2D2F" transform="translate(0,0)"/>
<path d="" fill="#2D2D2C" transform="translate(0,0)"/>
<path d="" fill="#2F2F2F" transform="translate(0,0)"/>
<path d="" fill="#2B2929" transform="translate(0,0)"/>
<path d="" fill="#2D2D2B" transform="translate(0,0)"/>
<path d="" fill="#2D2E2D" transform="translate(0,0)"/>
<path d="" fill="#32302F" transform="translate(0,0)"/>
<path d="" fill="#2F322D" transform="translate(0,0)"/>
<path d="" fill="#2B2B2C" transform="translate(0,0)"/>
<path d="" fill="#2E2D2B" transform="translate(0,0)"/>
<path d="" fill="#2C2C29" transform="translate(0,0)"/>
<path d="" fill="#2C2A2B" transform="translate(0,0)"/>
<path d="" fill="#2D2C2A" transform="translate(0,0)"/>
<path d="" fill="#292929" transform="translate(0,0)"/>
<path d="" fill="#2B2B29" transform="translate(0,0)"/>
<path d="" fill="#393938" transform="translate(0,0)"/>
<path d="" fill="#2E2C2E" transform="translate(0,0)"/>
<path d="" fill="#3A3A3B" transform="translate(0,0)"/>
<path d="" fill="#29282A" transform="translate(0,0)"/>
<path d="" fill="#2A2B2B" transform="translate(0,0)"/>
<path d="" fill="#2A2928" transform="translate(0,0)"/>
<path d="" fill="#31312F" transform="translate(0,0)"/>
<path d="" fill="#2D2C2C" transform="translate(0,0)"/>
<path d="" fill="#333232" transform="translate(0,0)"/>
<path d="" fill="#31312E" transform="translate(0,0)"/>
<path d="" fill="#2C2D2B" transform="translate(0,0)"/>
<path d="" fill="#333231" transform="translate(0,0)"/>
<path d="" fill="#323333" transform="translate(0,0)"/>
<path d="" fill="#302E30" transform="translate(0,0)"/>
<path d="" fill="#333534" transform="translate(0,0)"/>
<path d="" fill="#373535" transform="translate(0,0)"/>
<path d="" fill="#373535" transform="translate(0,0)"/>
<path d="" fill="#2B292C" transform="translate(0,0)"/>
<path d="" fill="#2E2A2E" transform="translate(0,0)"/>
<path d="" fill="#302F2E" transform="translate(0,0)"/>
<path d="" fill="#282729" transform="translate(0,0)"/>
<path d="" fill="#2D2A2C" transform="translate(0,0)"/>
<path d="" fill="#2D2D2A" transform="translate(0,0)"/>
<path d="" fill="#333334" transform="translate(0,0)"/>
<path d="" fill="#312F2E" transform="translate(0,0)"/>
<path d="" fill="#2A2C2B" transform="translate(0,0)"/>
<path d="" fill="#363635" transform="translate(0,0)"/>
<path d="" fill="#343332" transform="translate(0,0)"/>
<path d="" fill="#323130" transform="translate(0,0)"/>
<path d="" fill="#363634" transform="translate(0,0)"/>
<path d="" fill="#343334" transform="translate(0,0)"/>
<path d="" fill="#343230" transform="translate(0,0)"/>
<path d="" fill="#323232" transform="translate(0,0)"/>
<path d="" fill="#353332" transform="translate(0,0)"/>
<path d="" fill="#3C3B3B" transform="translate(0,0)"/>
<path d="" fill="#383635" transform="translate(0,0)"/>
<path d="" fill="#393738" transform="translate(0,0)"/>
<path d="" fill="#3A3939" transform="translate(0,0)"/>
<path d="" fill="#393837" transform="translate(0,0)"/>
<path d="" fill="#3D3D3C" transform="translate(0,0)"/>
<path d="" fill="#3C3C3D" transform="translate(0,0)"/>
<path d="" fill="#3C3E3E" transform="translate(0,0)"/>
<path d="" fill="#3E3D3E" transform="translate(0,0)"/>
</svg>
